<svg width="150" height="98" viewBox="0 0 150 98" fill="none" xmlns="http://www.w3.org/2000/svg">
<ellipse cx="101.191" cy="17.7805" rx="17.8571" ry="17.7805" fill="#EB1287" fill-opacity="0.8"/>
<ellipse cx="126.191" cy="27.2634" rx="14.881" ry="14.8171" fill="#A2C94F" fill-opacity="0.8"/>
<ellipse cx="123.214" cy="47.4146" rx="11.9048" ry="11.8537" fill="#00B6DD" fill-opacity="0.8"/>
<ellipse cx="141.072" cy="52.1561" rx="8.92857" ry="8.89024" fill="#DD0000" fill-opacity="0.8"/>
<ellipse opacity="0.8" cx="133.036" cy="65.4914" rx="4.46429" ry="4.44512" fill="#FF9900" fill-opacity="0.8"/>
<path d="M13.311 52.0826C13.1916 51.6679 13.024 51.3014 12.8081 50.9832C12.5922 50.6593 12.328 50.3866 12.0155 50.165C11.7087 49.9378 11.3564 49.7645 10.9587 49.6451C10.5666 49.5258 10.132 49.4662 9.65471 49.4662C8.76266 49.4662 7.97857 49.6878 7.30244 50.1309C6.63198 50.5741 6.10926 51.219 5.73426 52.0656C5.35926 52.9065 5.17176 53.9349 5.17176 55.1508C5.17176 56.3667 5.35641 57.4008 5.72573 58.2531C6.09505 59.1054 6.61778 59.7559 7.29391 60.2048C7.97005 60.648 8.76835 60.8696 9.6888 60.8696C10.524 60.8696 11.2371 60.7218 11.828 60.4264C12.4246 60.1253 12.8791 59.702 13.1916 59.1565C13.5098 58.6111 13.6689 57.9662 13.6689 57.2218L14.4189 57.3326H9.91892V54.5542H17.2229V56.7531C17.2229 58.2872 16.899 59.6054 16.2513 60.7076C15.6036 61.8042 14.7115 62.6508 13.5752 63.2474C12.4388 63.8383 11.1377 64.1338 9.67176 64.1338C8.03539 64.1338 6.59789 63.773 5.35926 63.0514C4.12062 62.3241 3.15471 61.2929 2.46153 59.9576C1.77403 58.6167 1.43028 57.0258 1.43028 55.1849C1.43028 53.7701 1.63482 52.5088 2.04391 51.4008C2.45869 50.2872 3.03823 49.344 3.78255 48.5713C4.52687 47.7986 5.39335 47.2105 6.38198 46.8071C7.37062 46.4037 8.44164 46.202 9.59505 46.202C10.5837 46.202 11.5041 46.3468 12.3564 46.6366C13.2087 46.9207 13.9644 47.3241 14.6235 47.8468C15.2882 48.3696 15.8308 48.9917 16.2513 49.7133C16.6718 50.4292 16.9416 51.219 17.061 52.0826H13.311ZM25.5496 63.8951V46.4406H37.311V49.4832H29.2399V53.6423H36.7058V56.6849H29.2399V60.8525H37.3451V63.8951H25.5496ZM45.7996 46.4406H50.3507L55.1576 58.1679H55.3621L60.1689 46.4406H64.7201V63.8951H61.1405V52.5343H60.9956L56.4786 63.8099H54.0411L49.524 52.4917H49.3791V63.8951H45.7996V46.4406ZM73.3152 63.8951V46.4406H85.0766V49.4832H77.0056V53.6423H84.4715V56.6849H77.0056V60.8525H85.1107V63.8951H73.3152ZM108.165 46.4406V63.8951H104.977L97.3834 52.9093H97.2556V63.8951H93.5652V46.4406H96.8039L104.338 57.4179H104.491V46.4406H108.165ZM7.63403 69.8843V69.0406H13.5249V69.8843H11.055V76.8951H10.1039V69.8843H7.63403ZM18.0304 76.8951V69.0406H22.7707V69.8843H18.9815V72.5383H22.5253V73.3821H18.9815V76.0514H22.8321V76.8951H18.0304ZM33.843 71.4951H32.8919C32.8356 71.2216 32.7372 70.9812 32.5966 70.7741C32.4585 70.567 32.2897 70.3932 32.0903 70.2525C31.8934 70.1093 31.6748 70.002 31.4345 69.9304C31.1941 69.8588 30.9436 69.823 30.6828 69.823C30.2072 69.823 29.7764 69.9432 29.3903 70.1835C29.0068 70.4238 28.7012 70.778 28.4737 71.2459C28.2487 71.7137 28.1362 72.2878 28.1362 72.9679C28.1362 73.648 28.2487 74.222 28.4737 74.6899C28.7012 75.1578 29.0068 75.5119 29.3903 75.7522C29.7764 75.9926 30.2072 76.1128 30.6828 76.1128C30.9436 76.1128 31.1941 76.077 31.4345 76.0054C31.6748 75.9338 31.8934 75.8277 32.0903 75.687C32.2897 75.5439 32.4585 75.3687 32.5966 75.1616C32.7372 74.952 32.8356 74.7116 32.8919 74.4406H33.843C33.7714 74.842 33.641 75.2012 33.4518 75.5183C33.2626 75.8353 33.0274 76.1051 32.7461 76.3275C32.4649 76.5474 32.1491 76.7149 31.7988 76.8299C31.4511 76.945 31.0791 77.0025 30.6828 77.0025C30.0129 77.0025 29.4172 76.8389 28.8956 76.5116C28.374 76.1843 27.9636 75.719 27.6645 75.1156C27.3653 74.5122 27.2157 73.7963 27.2157 72.9679C27.2157 72.1395 27.3653 71.4236 27.6645 70.8201C27.9636 70.2167 28.374 69.7514 28.8956 69.4241C29.4172 69.0968 30.0129 68.9332 30.6828 68.9332C31.0791 68.9332 31.4511 68.9907 31.7988 69.1058C32.1491 69.2209 32.4649 69.3896 32.7461 69.612C33.0274 69.8319 33.2626 70.1004 33.4518 70.4174C33.641 70.7319 33.7714 71.0912 33.843 71.4951ZM38.4175 76.8951V69.0406H39.3686V72.5383H43.5567V69.0406H44.5078V76.8951H43.5567V73.3821H39.3686V76.8951H38.4175ZM55.6779 69.0406V76.8951H54.7575L50.4773 70.7281H50.4006V76.8951H49.4495V69.0406H50.37L54.6654 75.223H54.7421V69.0406H55.6779ZM67.2459 72.9679C67.2459 73.7963 67.0964 74.5122 66.7972 75.1156C66.4981 75.719 66.0877 76.1843 65.5661 76.5116C65.0445 76.8389 64.4488 77.0025 63.7789 77.0025C63.109 77.0025 62.5133 76.8389 61.9917 76.5116C61.4701 76.1843 61.0597 75.719 60.7606 75.1156C60.4614 74.5122 60.3118 73.7963 60.3118 72.9679C60.3118 72.1395 60.4614 71.4236 60.7606 70.8201C61.0597 70.2167 61.4701 69.7514 61.9917 69.4241C62.5133 69.0968 63.109 68.9332 63.7789 68.9332C64.4488 68.9332 65.0445 69.0968 65.5661 69.4241C66.0877 69.7514 66.4981 70.2167 66.7972 70.8201C67.0964 71.4236 67.2459 72.1395 67.2459 72.9679ZM66.3255 72.9679C66.3255 72.2878 66.2117 71.7137 65.9841 71.2459C65.7591 70.778 65.4536 70.4238 65.0675 70.1835C64.684 69.9432 64.2544 69.823 63.7789 69.823C63.3033 69.823 62.8725 69.9432 62.4864 70.1835C62.1029 70.4238 61.7973 70.778 61.5698 71.2459C61.3448 71.7137 61.2323 72.2878 61.2323 72.9679C61.2323 73.648 61.3448 74.222 61.5698 74.6899C61.7973 75.1578 62.1029 75.5119 62.4864 75.7522C62.8725 75.9926 63.3033 76.1128 63.7789 76.1128C64.2544 76.1128 64.684 75.9926 65.0675 75.7522C65.4536 75.5119 65.7591 75.1578 65.9841 74.6899C66.2117 74.222 66.3255 73.648 66.3255 72.9679ZM71.8827 76.8951V69.0406H72.8339V76.0514H76.485V76.8951H71.8827ZM87.6225 72.9679C87.6225 73.7963 87.4729 74.5122 87.1738 75.1156C86.8746 75.719 86.4642 76.1843 85.9427 76.5116C85.4211 76.8389 84.8253 77.0025 84.1554 77.0025C83.4856 77.0025 82.8898 76.8389 82.3682 76.5116C81.8466 76.1843 81.4363 75.719 81.1371 75.1156C80.838 74.5122 80.6884 73.7963 80.6884 72.9679C80.6884 72.1395 80.838 71.4236 81.1371 70.8201C81.4363 70.2167 81.8466 69.7514 82.3682 69.4241C82.8898 69.0968 83.4856 68.9332 84.1554 68.9332C84.8253 68.9332 85.4211 69.0968 85.9427 69.4241C86.4642 69.7514 86.8746 70.2167 87.1738 70.8201C87.4729 71.4236 87.6225 72.1395 87.6225 72.9679ZM86.702 72.9679C86.702 72.2878 86.5883 71.7137 86.3607 71.2459C86.1357 70.778 85.8302 70.4238 85.4441 70.1835C85.0606 69.9432 84.631 69.823 84.1554 69.823C83.6799 69.823 83.249 69.9432 82.863 70.1835C82.4794 70.4238 82.1739 70.778 81.9463 71.2459C81.7213 71.7137 81.6088 72.2878 81.6088 72.9679C81.6088 73.648 81.7213 74.222 81.9463 74.6899C82.1739 75.1578 82.4794 75.5119 82.863 75.7522C83.249 75.9926 83.6799 76.1128 84.1554 76.1128C84.631 76.1128 85.0606 75.9926 85.4441 75.7522C85.8302 75.5119 86.1357 75.1578 86.3607 74.6899C86.5883 74.222 86.702 73.648 86.702 72.9679ZM97.6286 71.4951C97.5442 71.2369 97.433 71.0055 97.2949 70.801C97.1594 70.5939 96.9971 70.4174 96.8079 70.2717C96.6212 70.126 96.409 70.0147 96.1712 69.938C95.9334 69.8613 95.6726 69.823 95.3888 69.823C94.9235 69.823 94.5003 69.9432 94.1194 70.1835C93.7384 70.4238 93.4354 70.778 93.2104 71.2459C92.9854 71.7137 92.8729 72.2878 92.8729 72.9679C92.8729 73.648 92.9867 74.222 93.2142 74.6899C93.4418 75.1578 93.7499 75.5119 94.1385 75.7522C94.5272 75.9926 94.9644 76.1128 95.4502 76.1128C95.9002 76.1128 96.2965 76.0169 96.6391 75.8251C96.9843 75.6308 97.2527 75.3572 97.4445 75.0044C97.6388 74.649 97.736 74.2309 97.736 73.7503L98.0275 73.8116H95.665V72.9679H98.6564V73.8116C98.6564 74.4585 98.5184 75.021 98.2422 75.4991C97.9686 75.9772 97.5902 76.348 97.107 76.6113C96.6263 76.8721 96.074 77.0025 95.4502 77.0025C94.7547 77.0025 94.1436 76.8389 93.6169 76.5116C93.0928 76.1843 92.6837 75.719 92.3897 75.1156C92.0982 74.5122 91.9525 73.7963 91.9525 72.9679C91.9525 72.3466 92.0356 71.7879 92.2017 71.2919C92.3705 70.7933 92.6083 70.3689 92.9151 70.0186C93.2219 69.6683 93.585 69.3998 94.0043 69.2132C94.4236 69.0265 94.8851 68.9332 95.3888 68.9332C95.803 68.9332 96.1891 68.9959 96.5471 69.1211C96.9076 69.2439 97.2284 69.419 97.5097 69.6466C97.7935 69.8716 98.03 70.1413 98.2192 70.4558C98.4084 70.7677 98.5388 71.1142 98.6104 71.4951H97.6286ZM102.648 69.0406H103.737L105.916 72.7071H106.008L108.186 69.0406H109.275L106.437 73.6582V76.8951H105.486V73.6582L102.648 69.0406Z" fill="black"/>
</svg>
