<svg width="50" height="50" viewBox="0 0 50 50" fill="none" xmlns="http://www.w3.org/2000/svg">
<circle cx="25" cy="25" r="25" fill="#A2C94F"/>
<mask id="path-2-inside-1_117_321" fill="white">
<path fill-rule="evenodd" clip-rule="evenodd" d="M31.3046 12.2514C31.3423 12.1601 31.4119 12.0856 31.5004 12.0419C31.589 11.9982 31.6904 11.9883 31.7857 12.0139L33.447 12.4676C33.5422 12.4939 33.6245 12.554 33.6787 12.6365C33.7328 12.7191 33.7551 12.8186 33.7412 12.9164L33.5348 14.3685C34.4304 14.8839 35.1522 15.6271 35.6463 16.4986L37.1012 16.3035C37.1995 16.2904 37.2993 16.3137 37.3817 16.3692C37.464 16.4246 37.5232 16.5082 37.5482 16.6043L37.9871 18.2694C38.0119 18.3653 38.0008 18.467 37.9559 18.5554C37.911 18.6437 37.8353 18.7126 37.7432 18.7491L36.3843 19.2954C36.3852 20.3139 36.113 21.314 35.5959 22.1915L36.49 23.3541C36.5504 23.4325 36.5801 23.5303 36.5735 23.6291C36.5669 23.7279 36.5245 23.8209 36.4542 23.8907L35.2335 25.1021C35.1633 25.1719 35.0701 25.2137 34.9714 25.2197C34.8726 25.2257 34.7751 25.1954 34.697 25.1346L33.5413 24.2273C32.6605 24.7372 31.659 25.0011 30.6414 24.9915L30.0822 26.3493C30.0445 26.4406 29.9749 26.515 29.8864 26.5587C29.7978 26.6024 29.6964 26.6123 29.6011 26.5867L27.9398 26.1346C27.844 26.1087 27.761 26.0485 27.7065 25.9655C27.652 25.8826 27.6298 25.7825 27.6439 25.6842L27.852 24.2322C26.9702 23.724 26.2409 22.9884 25.7405 22.102L24.2856 22.2971C24.1872 22.3103 24.0875 22.2869 24.0051 22.2315C23.9228 22.1761 23.8635 22.0924 23.8386 21.9963L23.3997 20.3312C23.3749 20.2353 23.386 20.1336 23.4309 20.0453C23.4758 19.9569 23.5514 19.888 23.6435 19.8516L25.0025 19.3052C25.0018 18.2867 25.274 17.2867 25.7908 16.4092L24.8968 15.2466C24.8364 15.1681 24.8067 15.0703 24.8133 14.9715C24.8199 14.8727 24.8623 14.7797 24.9326 14.71L26.1533 13.4985C26.2235 13.4287 26.3166 13.3869 26.4154 13.3809C26.5142 13.3749 26.6117 13.4052 26.6898 13.466L27.8455 14.3734C28.7263 13.8635 29.7278 13.5995 30.7454 13.6091L31.3046 12.2514ZM33.8306 20.154C33.7186 20.5661 33.5264 20.9521 33.2652 21.29C33.004 21.6278 32.6789 21.9109 32.3083 22.1231C31.9378 22.3352 31.529 22.4723 31.1055 22.5264C30.682 22.5806 30.252 22.5507 29.84 22.4386C29.428 22.3265 29.0421 22.1343 28.7044 21.873C28.3667 21.6117 28.0837 21.2865 27.8716 20.9158C27.4433 20.1671 27.3298 19.279 27.5562 18.4466C27.7825 17.6143 28.3301 16.906 29.0785 16.4776C29.8269 16.0491 30.7147 15.9356 31.5468 16.162C32.3788 16.3884 33.0869 16.9362 33.5152 17.6849C33.9435 18.4335 34.057 19.3217 33.8306 20.154ZM21.3906 22.0971C21.3787 21.9988 21.3314 21.9082 21.2574 21.8424C21.1835 21.7765 21.0881 21.7399 20.9891 21.7394H19.2677C19.1686 21.7394 19.073 21.7756 18.9988 21.8412C18.9246 21.9068 18.8768 21.9972 18.8645 22.0955L18.6857 23.5264C17.969 23.6886 17.2852 23.9718 16.6636 24.3639L15.5257 23.4793C15.4477 23.4185 15.3501 23.3882 15.2514 23.3942C15.1526 23.4002 15.0594 23.442 14.9893 23.5118L13.7718 24.7297C13.702 24.7999 13.6602 24.8931 13.6542 24.9919C13.6482 25.0907 13.6785 25.1883 13.7393 25.2663L14.6236 26.4046C14.2316 27.0264 13.9485 27.7104 13.7864 28.4274L12.356 28.6063C12.258 28.6185 12.1678 28.666 12.1023 28.7399C12.0368 28.8139 12.0004 28.9091 12 29.0079V30.7283C12 30.8273 12.0362 30.923 12.1018 30.9972C12.1673 31.0715 12.2577 31.1192 12.356 31.1315L13.7864 31.3104C13.9506 32.0389 14.2383 32.7202 14.6236 33.3332L13.7393 34.4715C13.6785 34.5495 13.6482 34.6471 13.6542 34.7459C13.6602 34.8447 13.702 34.9379 13.7718 35.008L14.9893 36.226C15.0594 36.2958 15.1526 36.3376 15.2514 36.3436C15.3501 36.3496 15.4477 36.3193 15.5257 36.2585L16.6636 35.3739C17.2764 35.7593 17.9575 36.0471 18.6857 36.2113L18.8645 37.6423C18.8764 37.7406 18.9238 37.8312 18.9977 37.8971C19.0716 37.9629 19.167 37.9995 19.266 38H20.9858C21.0849 38 21.1805 37.9638 21.2547 37.8982C21.3289 37.8326 21.3767 37.7422 21.389 37.6439L21.5678 36.213C22.2845 36.0509 22.9684 35.7677 23.5899 35.3755L24.7278 36.2601C24.8058 36.3209 24.9034 36.3512 25.0021 36.3452C25.1009 36.3392 25.1941 36.2974 25.2642 36.2276L26.4817 35.0097C26.5515 34.9395 26.5933 34.8463 26.5993 34.7475C26.6053 34.6487 26.575 34.5511 26.5142 34.4731L25.6299 33.3348C26.0152 32.7218 26.3029 32.0405 26.4671 31.312L27.8975 31.1332C27.9958 31.1213 28.0864 31.0739 28.1522 31C28.2181 30.926 28.2547 30.8305 28.2551 30.7315V29.0111C28.2551 28.9121 28.2189 28.8164 28.1534 28.7422C28.0878 28.6679 27.9974 28.6202 27.8991 28.6079L26.4687 28.429C26.3066 27.712 26.0235 27.028 25.6315 26.4062L26.5158 25.268C26.5766 25.1899 26.6069 25.0923 26.6009 24.9935C26.5949 24.8947 26.5531 24.8015 26.4833 24.7314L25.2642 23.5118C25.1941 23.442 25.1009 23.4002 25.0021 23.3942C24.9034 23.3882 24.8058 23.4185 24.7278 23.4793L23.5899 24.3639C22.9687 23.9725 22.2855 23.6899 21.5694 23.5281L21.3906 22.0971ZM24.1913 29.8697C24.1913 30.9478 23.7632 31.9818 23.0011 32.7442C22.239 33.5066 21.2053 33.9349 20.1276 33.9349C19.0498 33.9349 18.0161 33.5066 17.254 32.7442C16.4919 31.9818 16.0638 30.9478 16.0638 29.8697C16.0638 28.7916 16.4919 27.7576 17.254 26.9952C18.0161 26.2328 19.0498 25.8046 20.1276 25.8046C21.2053 25.8046 22.239 26.2328 23.0011 26.9952C23.7632 27.7576 24.1913 28.7916 24.1913 29.8697Z"/>
</mask>
<path fill-rule="evenodd" clip-rule="evenodd" d="M31.3046 12.2514C31.3423 12.1601 31.4119 12.0856 31.5004 12.0419C31.589 11.9982 31.6904 11.9883 31.7857 12.0139L33.447 12.4676C33.5422 12.4939 33.6245 12.554 33.6787 12.6365C33.7328 12.7191 33.7551 12.8186 33.7412 12.9164L33.5348 14.3685C34.4304 14.8839 35.1522 15.6271 35.6463 16.4986L37.1012 16.3035C37.1995 16.2904 37.2993 16.3137 37.3817 16.3692C37.464 16.4246 37.5232 16.5082 37.5482 16.6043L37.9871 18.2694C38.0119 18.3653 38.0008 18.467 37.9559 18.5554C37.911 18.6437 37.8353 18.7126 37.7432 18.7491L36.3843 19.2954C36.3852 20.3139 36.113 21.314 35.5959 22.1915L36.49 23.3541C36.5504 23.4325 36.5801 23.5303 36.5735 23.6291C36.5669 23.7279 36.5245 23.8209 36.4542 23.8907L35.2335 25.1021C35.1633 25.1719 35.0701 25.2137 34.9714 25.2197C34.8726 25.2257 34.7751 25.1954 34.697 25.1346L33.5413 24.2273C32.6605 24.7372 31.659 25.0011 30.6414 24.9915L30.0822 26.3493C30.0445 26.4406 29.9749 26.515 29.8864 26.5587C29.7978 26.6024 29.6964 26.6123 29.6011 26.5867L27.9398 26.1346C27.844 26.1087 27.761 26.0485 27.7065 25.9655C27.652 25.8826 27.6298 25.7825 27.6439 25.6842L27.852 24.2322C26.9702 23.724 26.2409 22.9884 25.7405 22.102L24.2856 22.2971C24.1872 22.3103 24.0875 22.2869 24.0051 22.2315C23.9228 22.1761 23.8635 22.0924 23.8386 21.9963L23.3997 20.3312C23.3749 20.2353 23.386 20.1336 23.4309 20.0453C23.4758 19.9569 23.5514 19.888 23.6435 19.8516L25.0025 19.3052C25.0018 18.2867 25.274 17.2867 25.7908 16.4092L24.8968 15.2466C24.8364 15.1681 24.8067 15.0703 24.8133 14.9715C24.8199 14.8727 24.8623 14.7797 24.9326 14.71L26.1533 13.4985C26.2235 13.4287 26.3166 13.3869 26.4154 13.3809C26.5142 13.3749 26.6117 13.4052 26.6898 13.466L27.8455 14.3734C28.7263 13.8635 29.7278 13.5995 30.7454 13.6091L31.3046 12.2514ZM33.8306 20.154C33.7186 20.5661 33.5264 20.9521 33.2652 21.29C33.004 21.6278 32.6789 21.9109 32.3083 22.1231C31.9378 22.3352 31.529 22.4723 31.1055 22.5264C30.682 22.5806 30.252 22.5507 29.84 22.4386C29.428 22.3265 29.0421 22.1343 28.7044 21.873C28.3667 21.6117 28.0837 21.2865 27.8716 20.9158C27.4433 20.1671 27.3298 19.279 27.5562 18.4466C27.7825 17.6143 28.3301 16.906 29.0785 16.4776C29.8269 16.0491 30.7147 15.9356 31.5468 16.162C32.3788 16.3884 33.0869 16.9362 33.5152 17.6849C33.9435 18.4335 34.057 19.3217 33.8306 20.154ZM21.3906 22.0971C21.3787 21.9988 21.3314 21.9082 21.2574 21.8424C21.1835 21.7765 21.0881 21.7399 20.9891 21.7394H19.2677C19.1686 21.7394 19.073 21.7756 18.9988 21.8412C18.9246 21.9068 18.8768 21.9972 18.8645 22.0955L18.6857 23.5264C17.969 23.6886 17.2852 23.9718 16.6636 24.3639L15.5257 23.4793C15.4477 23.4185 15.3501 23.3882 15.2514 23.3942C15.1526 23.4002 15.0594 23.442 14.9893 23.5118L13.7718 24.7297C13.702 24.7999 13.6602 24.8931 13.6542 24.9919C13.6482 25.0907 13.6785 25.1883 13.7393 25.2663L14.6236 26.4046C14.2316 27.0264 13.9485 27.7104 13.7864 28.4274L12.356 28.6063C12.258 28.6185 12.1678 28.666 12.1023 28.7399C12.0368 28.8139 12.0004 28.9091 12 29.0079V30.7283C12 30.8273 12.0362 30.923 12.1018 30.9972C12.1673 31.0715 12.2577 31.1192 12.356 31.1315L13.7864 31.3104C13.9506 32.0389 14.2383 32.7202 14.6236 33.3332L13.7393 34.4715C13.6785 34.5495 13.6482 34.6471 13.6542 34.7459C13.6602 34.8447 13.702 34.9379 13.7718 35.008L14.9893 36.226C15.0594 36.2958 15.1526 36.3376 15.2514 36.3436C15.3501 36.3496 15.4477 36.3193 15.5257 36.2585L16.6636 35.3739C17.2764 35.7593 17.9575 36.0471 18.6857 36.2113L18.8645 37.6423C18.8764 37.7406 18.9238 37.8312 18.9977 37.8971C19.0716 37.9629 19.167 37.9995 19.266 38H20.9858C21.0849 38 21.1805 37.9638 21.2547 37.8982C21.3289 37.8326 21.3767 37.7422 21.389 37.6439L21.5678 36.213C22.2845 36.0509 22.9684 35.7677 23.5899 35.3755L24.7278 36.2601C24.8058 36.3209 24.9034 36.3512 25.0021 36.3452C25.1009 36.3392 25.1941 36.2974 25.2642 36.2276L26.4817 35.0097C26.5515 34.9395 26.5933 34.8463 26.5993 34.7475C26.6053 34.6487 26.575 34.5511 26.5142 34.4731L25.6299 33.3348C26.0152 32.7218 26.3029 32.0405 26.4671 31.312L27.8975 31.1332C27.9958 31.1213 28.0864 31.0739 28.1522 31C28.2181 30.926 28.2547 30.8305 28.2551 30.7315V29.0111C28.2551 28.9121 28.2189 28.8164 28.1534 28.7422C28.0878 28.6679 27.9974 28.6202 27.8991 28.6079L26.4687 28.429C26.3066 27.712 26.0235 27.028 25.6315 26.4062L26.5158 25.268C26.5766 25.1899 26.6069 25.0923 26.6009 24.9935C26.5949 24.8947 26.5531 24.8015 26.4833 24.7314L25.2642 23.5118C25.1941 23.442 25.1009 23.4002 25.0021 23.3942C24.9034 23.3882 24.8058 23.4185 24.7278 23.4793L23.5899 24.3639C22.9687 23.9725 22.2855 23.6899 21.5694 23.5281L21.3906 22.0971ZM24.1913 29.8697C24.1913 30.9478 23.7632 31.9818 23.0011 32.7442C22.239 33.5066 21.2053 33.9349 20.1276 33.9349C19.0498 33.9349 18.0161 33.5066 17.254 32.7442C16.4919 31.9818 16.0638 30.9478 16.0638 29.8697C16.0638 28.7916 16.4919 27.7576 17.254 26.9952C18.0161 26.2328 19.0498 25.8046 20.1276 25.8046C21.2053 25.8046 22.239 26.2328 23.0011 26.9952C23.7632 27.7576 24.1913 28.7916 24.1913 29.8697Z" fill="white" stroke="white" stroke-width="6" mask="url(#path-2-inside-1_117_321)"/>
</svg>
