<svg width="20" height="20" viewBox="0 0 20 20" fill="none" xmlns="http://www.w3.org/2000/svg">
<path d="M3.57143 13.2143V12.5714H2.28571V13.2143C2.28571 14.4078 2.75982 15.5524 3.60373 16.3963C4.44765 17.2402 5.59224 17.7143 6.78571 17.7143H8.71429V16.4286H6.78571C5.93323 16.4286 5.11567 16.0899 4.51287 15.4871C3.91008 14.8843 3.57143 14.0668 3.57143 13.2143ZM15.1429 6.78571V7.42857H16.4286V6.78571C16.4286 5.59224 15.9545 4.44765 15.1106 3.60373C14.2666 2.75982 13.122 2.28572 11.9286 2.28572H10V3.57143H11.9286C12.3507 3.57143 12.7687 3.65457 13.1586 3.8161C13.5486 3.97764 13.9029 4.2144 14.2014 4.51287C14.4999 4.81135 14.7367 5.16569 14.8982 5.55566C15.0597 5.94564 15.1429 6.36361 15.1429 6.78571ZM6.78571 6.78571H2.92857C2.41708 6.78571 1.92654 6.9889 1.56487 7.35058C1.20319 7.71226 1 8.2028 1 8.71429V10H2.28571V8.71429C2.28571 8.54379 2.35344 8.38028 2.474 8.25972C2.59456 8.13916 2.75808 8.07143 2.92857 8.07143H6.78571C6.95621 8.07143 7.11972 8.13916 7.24028 8.25972C7.36084 8.38028 7.42857 8.54379 7.42857 8.71429V10H8.71429V8.71429C8.71429 8.2028 8.5111 7.71226 8.14942 7.35058C7.78774 6.9889 7.2972 6.78571 6.78571 6.78571ZM4.85714 6.14286C5.36572 6.14286 5.86288 5.99205 6.28575 5.70949C6.70862 5.42694 7.03821 5.02534 7.23283 4.55547C7.42746 4.08561 7.47838 3.56858 7.37916 3.06977C7.27994 2.57096 7.03504 2.11278 6.67542 1.75316C6.3158 1.39353 5.85761 1.14863 5.3588 1.04941C4.86 0.950191 4.34297 1.00111 3.8731 1.19574C3.40323 1.39036 3.00163 1.71995 2.71908 2.14282C2.43653 2.56569 2.28571 3.06285 2.28571 3.57143C2.28571 4.25341 2.55663 4.90747 3.03887 5.3897C3.5211 5.87194 4.17516 6.14286 4.85714 6.14286ZM4.85714 2.28572C5.11143 2.28572 5.36001 2.36112 5.57145 2.5024C5.78288 2.64367 5.94768 2.84447 6.04499 3.07941C6.1423 3.31434 6.16776 3.57286 6.11815 3.82226C6.06854 4.07166 5.94609 4.30076 5.76628 4.48057C5.58647 4.66038 5.35738 4.78283 5.10797 4.83244C4.85857 4.88205 4.60005 4.85659 4.36512 4.75927C4.13019 4.66196 3.92939 4.49717 3.78811 4.28573C3.64683 4.0743 3.57143 3.82572 3.57143 3.57143C3.57143 3.23044 3.70689 2.90341 3.94801 2.66229C4.18912 2.42117 4.51615 2.28572 4.85714 2.28572ZM17.0714 15.7857H13.2143C12.7028 15.7857 12.2123 15.9889 11.8506 16.3506C11.4889 16.7123 11.2857 17.2028 11.2857 17.7143V19H12.5714V17.7143C12.5714 17.5438 12.6392 17.3803 12.7597 17.2597C12.8803 17.1392 13.0438 17.0714 13.2143 17.0714H17.0714C17.2419 17.0714 17.4054 17.1392 17.526 17.2597C17.6466 17.3803 17.7143 17.5438 17.7143 17.7143V19H19V17.7143C19 17.2028 18.7968 16.7123 18.4351 16.3506C18.0735 15.9889 17.5829 15.7857 17.0714 15.7857ZM12.5714 12.5714C12.5714 13.08 12.7222 13.5772 13.0048 14C13.2873 14.4229 13.6889 14.7525 14.1588 14.9471C14.6287 15.1417 15.1457 15.1927 15.6445 15.0934C16.1433 14.9942 16.6015 14.7493 16.9611 14.3897C17.3208 14.0301 17.5657 13.5719 17.6649 13.0731C17.7641 12.5743 17.7132 12.0573 17.5185 11.5874C17.3239 11.1175 16.9943 10.7159 16.5715 10.4334C16.1486 10.1508 15.6514 10 15.1429 10C14.4609 10 13.8068 10.2709 13.3246 10.7532C12.8423 11.2354 12.5714 11.8894 12.5714 12.5714ZM16.4286 12.5714C16.4286 12.8257 16.3532 13.0743 16.2119 13.2857C16.0706 13.4972 15.8698 13.662 15.6349 13.7593C15.3999 13.8566 15.1414 13.882 14.892 13.8324C14.6426 13.7828 14.4135 13.6604 14.2337 13.4806C14.0539 13.3008 13.9315 13.0717 13.8818 12.8223C13.8322 12.5729 13.8577 12.3143 13.955 12.0794C14.0523 11.8445 14.2171 11.6437 14.4286 11.5024C14.64 11.3611 14.8886 11.2857 15.1429 11.2857C15.4838 11.2857 15.8109 11.4212 16.052 11.6623C16.2931 11.9034 16.4286 12.2304 16.4286 12.5714Z" fill="white" stroke="white" stroke-width="0.3"/>
</svg>
