<svg width="50" height="50" viewBox="0 0 50 50" fill="none" xmlns="http://www.w3.org/2000/svg">
<circle cx="25" cy="25" r="25" fill="#A2C94F"/>
<path d="M11.6666 36.6666L10.1166 36.05C10.0059 36.3286 9.97235 36.632 10.0196 36.9281C10.0668 37.2242 10.1931 37.5021 10.3851 37.7325C10.577 37.9629 10.8276 38.1372 11.1104 38.237C11.3931 38.3369 11.6976 38.3586 11.9916 38.3L11.6666 36.6666ZM19.51 35.1066L20.3 33.6383L19.7716 33.355L19.185 33.4716L19.51 35.1066ZM14.3733 29.8616L15.9233 30.4783L16.195 29.7883L15.8683 29.1233L14.3733 29.8616ZM36.6666 25C36.6666 30.41 31.9116 35 25.7833 35V38.3333C33.5183 38.3333 40 32.4766 40 25H36.6666ZM14.9016 25C14.9016 19.59 19.6583 15 25.785 15V11.6666C18.05 11.6666 11.5666 17.5233 11.5666 25H14.9016ZM25.785 15C31.9116 15 36.6666 19.59 36.6666 25H40C40 17.5233 33.52 11.6666 25.785 11.6666V15ZM25.7833 35C23.775 35 21.905 34.5 20.3 33.6383L18.72 36.5733C20.893 37.7356 23.3189 38.3403 25.7833 38.3333V35ZM11.9916 38.3L19.835 36.74L19.185 33.4716L11.3416 35.0316L11.9916 38.3016V38.3ZM15.8683 29.1233C15.2317 27.842 14.902 26.4307 14.9016 25H11.5666C11.5666 27 12.0366 28.8966 12.8766 30.6L15.8683 29.1233ZM12.825 29.245L10.1166 36.0516L13.2133 37.2816L15.92 30.4766L12.8233 29.245H12.825Z" fill="white"/>
<path d="M19.9999 26.6666C20.9204 26.6666 21.6666 25.9204 21.6666 24.9999C21.6666 24.0794 20.9204 23.3333 19.9999 23.3333C19.0794 23.3333 18.3333 24.0794 18.3333 24.9999C18.3333 25.9204 19.0794 26.6666 19.9999 26.6666Z" fill="white"/>
<path d="M25.8332 26.6666C26.7536 26.6666 27.4998 25.9204 27.4998 24.9999C27.4998 24.0794 26.7536 23.3333 25.8332 23.3333C24.9127 23.3333 24.1665 24.0794 24.1665 24.9999C24.1665 25.9204 24.9127 26.6666 25.8332 26.6666Z" fill="white"/>
<path d="M31.6667 26.6666C32.5871 26.6666 33.3333 25.9204 33.3333 24.9999C33.3333 24.0794 32.5871 23.3333 31.6667 23.3333C30.7462 23.3333 30 24.0794 30 24.9999C30 25.9204 30.7462 26.6666 31.6667 26.6666Z" fill="white"/>
</svg>
