<svg width="2443" height="449" viewBox="0 0 2443 449" fill="none" xmlns="http://www.w3.org/2000/svg">
<path d="M2080.1 1.9109C2092.8 -2.6891 2107 1.2109 2115.6 11.5109L2379 327.611V32.0109C2379 14.3109 2393.3 0.0109 2411 0.0109C2428.7 0.0109 2443 14.3109 2443 32.0109V416.011C2443 429.511 2434.6 441.511 2421.9 446.111C2409.2 450.711 2395 446.811 2386.4 436.511L2123 120.411V416.011C2123 433.711 2108.7 448.011 2091 448.011C2073.3 448.011 2059 433.711 2059 416.011V32.0109C2059 18.5109 2067.4 6.5109 2080.1 1.9109Z" fill="white"/>
<path d="M1672 0.0108643C1636.7 0.0108643 1608 28.7109 1608 64.0109V384.011C1608 419.311 1636.7 448.011 1672 448.011H1896C1913.7 448.011 1928 433.711 1928 416.011C1928 398.311 1913.7 384.011 1896 384.011H1672V256.011H1832C1849.7 256.011 1864 241.711 1864 224.011C1864 206.311 1849.7 192.011 1832 192.011H1672V64.0109H1896C1913.7 64.0109 1928 49.7109 1928 32.0109C1928 14.3109 1913.7 0.0108643 1896 0.0108643H1672Z" fill="white"/>
<path d="M1051.7 1.48495C1065.2 -2.61505 1079.8 2.58495 1087.6 14.385L1253 262.385L1418.4 14.285C1426.2 2.58495 1440.8 -2.71505 1454.3 1.38495C1467.8 5.48495 1477 17.985 1477 32.085V416.085C1477 433.785 1462.7 448.085 1445 448.085C1427.3 448.085 1413 433.785 1413 416.085V137.785L1279.6 337.885C1273.7 346.785 1263.7 352.085 1253 352.085C1242.3 352.085 1232.3 346.785 1226.4 337.885L1093 137.785V416.085C1093 433.785 1078.7 448.085 1061 448.085C1043.3 448.085 1029 433.785 1029 416.085V32.085C1029 17.985 1038.2 5.58495 1051.7 1.48495Z" fill="white"/>
<path d="M642 0.0108643C606.7 0.0108643 578 28.7109 578 64.0109V384.011C578 419.311 606.7 448.011 642 448.011H866C883.7 448.011 898 433.711 898 416.011C898 398.311 883.7 384.011 866 384.011H642V256.011H802C819.7 256.011 834 241.711 834 224.011C834 206.311 819.7 192.011 802 192.011H642V64.0109H866C883.7 64.0109 898 49.7109 898 32.0109C898 14.3109 883.7 0.0108643 866 0.0108643H642Z" fill="white"/>
<path d="M224 64.0109C135.6 64.0109 64 135.611 64 224.011C64 312.411 135.6 384.011 224 384.011C301.4 384.011 366 329.011 380.8 256.011H256C238.3 256.011 224 241.711 224 224.011C224 206.311 238.3 192.011 256 192.011H400C425.8 192.011 449.6 213.411 447.2 242.611C437.8 357.611 341.4 448.011 224 448.011C100.3 448.011 0 347.711 0 224.011C0 100.311 100.3 0.0108643 224 0.0108643C281.4 0.0108643 333.7 21.6109 373.3 57.0109C386.5 68.8109 387.6 89.0109 375.8 102.211C364 115.411 343.8 116.511 330.6 104.711C302.3 79.4109 265 64.0109 224 64.0109Z" fill="white"/>
</svg>
