<svg width="110" height="160" viewBox="0 0 110 160" fill="none" xmlns="http://www.w3.org/2000/svg">
<path fill-rule="evenodd" clip-rule="evenodd" d="M61.7792 14.976L54.2912 22.464L91.7312 59.904L46.8032 104.832H61.7792L106.707 59.904L61.7792 14.976Z" fill="#0066FF"/>
<path fill-rule="evenodd" clip-rule="evenodd" d="M46.8032 89.856L54.2912 82.368L16.8512 44.928L61.7792 0H46.8032L1.87519 44.928L46.8032 89.856Z" fill="#0066FF"/>
<path fill-rule="evenodd" clip-rule="evenodd" d="M16.8512 44.928L24.3392 52.416L61.7792 14.976L106.707 59.904V44.928L61.7792 1.14441e-05L16.8512 44.928Z" fill="#6DAFFF"/>
<path fill-rule="evenodd" clip-rule="evenodd" d="M91.7312 59.904L84.2432 52.416L46.8032 89.856L1.8752 44.928V59.904L46.8032 104.832L91.7312 59.904Z" fill="#0033CC"/>
<path d="M18.4037 120.571C18.2475 120.093 18.0415 119.664 17.7859 119.286C17.5349 118.902 17.2342 118.575 16.8839 118.306C16.5382 118.036 16.1452 117.83 15.7049 117.688C15.2645 117.546 14.7816 117.475 14.256 117.475C13.3943 117.475 12.6107 117.697 11.9052 118.142C11.1997 118.587 10.6386 119.243 10.2219 120.11C9.80526 120.976 9.59693 122.039 9.59693 123.298C9.59693 124.558 9.80763 125.621 10.229 126.487C10.6504 127.354 11.221 128.01 11.9407 128.455C12.6604 128.9 13.47 129.122 14.3697 129.122C15.203 129.122 15.9369 128.945 16.5714 128.59C17.2106 128.23 17.7077 127.723 18.0628 127.07C18.4227 126.412 18.6026 125.637 18.6026 124.747L19.1424 124.861H14.7674V123.298H20.3072V124.861C20.3072 126.059 20.0515 127.101 19.5401 127.986C19.0335 128.871 18.3327 129.558 17.4378 130.046C16.5477 130.529 15.525 130.77 14.3697 130.77C13.0818 130.77 11.9502 130.467 10.9748 129.861C10.0041 129.255 9.24655 128.393 8.70204 127.276C8.16227 126.158 7.89239 124.833 7.89239 123.298C7.89239 122.148 8.04627 121.113 8.35403 120.195C8.66653 119.271 9.10687 118.485 9.67506 117.837C10.2432 117.188 10.9156 116.691 11.6921 116.345C12.4686 116 13.3233 115.827 14.256 115.827C15.0231 115.827 15.738 115.943 16.4009 116.175C17.0685 116.402 17.6627 116.726 18.1836 117.148C18.7091 117.565 19.1471 118.064 19.4975 118.646C19.8479 119.224 20.0894 119.866 20.2219 120.571H18.4037ZM23.3238 130.571V116.026H32.1023V117.588H25.0852V122.503H31.6477V124.066H25.0852V129.009H32.2159V130.571H23.3238ZM35.277 116.026H37.3792L42.3224 128.1H42.4929L47.4361 116.026H49.5383V130.571H47.8906V119.52H47.7486L43.2031 130.571H41.6122L37.0667 119.52H36.9247V130.571H35.277V116.026ZM53.6665 116.026L57.9847 128.27H58.1552L62.4734 116.026H64.3199L58.979 130.571H57.1609L51.8199 116.026H53.6665ZM69.7745 130.798C68.7896 130.798 67.9255 130.564 67.1822 130.095C66.4435 129.627 65.8659 128.971 65.4492 128.128C65.0373 127.285 64.8313 126.3 64.8313 125.173C64.8313 124.037 65.0373 123.045 65.4492 122.198C65.8659 121.35 66.4435 120.692 67.1822 120.223C67.9255 119.754 68.7896 119.52 69.7745 119.52C70.7593 119.52 71.6211 119.754 72.3597 120.223C73.1031 120.692 73.6807 121.35 74.0927 122.198C74.5093 123.045 74.7177 124.037 74.7177 125.173C74.7177 126.3 74.5093 127.285 74.0927 128.128C73.6807 128.971 73.1031 129.627 72.3597 130.095C71.6211 130.564 70.7593 130.798 69.7745 130.798ZM69.7745 129.293C70.5226 129.293 71.1381 129.101 71.6211 128.718C72.104 128.334 72.4615 127.83 72.6935 127.205C72.9255 126.58 73.0415 125.903 73.0415 125.173C73.0415 124.444 72.9255 123.765 72.6935 123.135C72.4615 122.505 72.104 121.996 71.6211 121.608C71.1381 121.22 70.5226 121.026 69.7745 121.026C69.0264 121.026 68.4109 121.22 67.9279 121.608C67.4449 121.996 67.0875 122.505 66.8555 123.135C66.6234 123.765 66.5074 124.444 66.5074 125.173C66.5074 125.903 66.6234 126.58 66.8555 127.205C67.0875 127.83 67.4449 128.334 67.9279 128.718C68.4109 129.101 69.0264 129.293 69.7745 129.293ZM77.2763 130.571V119.662H78.9524V130.571H77.2763ZM78.1285 117.844C77.8018 117.844 77.5201 117.733 77.2834 117.51C77.0514 117.288 76.9354 117.02 76.9354 116.708C76.9354 116.395 77.0514 116.128 77.2834 115.905C77.5201 115.682 77.8018 115.571 78.1285 115.571C78.4552 115.571 78.7346 115.682 78.9666 115.905C79.2033 116.128 79.3217 116.395 79.3217 116.708C79.3217 117.02 79.2033 117.288 78.9666 117.51C78.7346 117.733 78.4552 117.844 78.1285 117.844ZM86.4542 130.798C85.4314 130.798 84.5508 130.557 83.8121 130.074C83.0735 129.591 82.5053 128.926 82.1076 128.078C81.7099 127.231 81.511 126.262 81.511 125.173C81.511 124.066 81.7146 123.088 82.1218 122.24C82.5337 121.388 83.1066 120.723 83.8405 120.244C84.5792 119.762 85.4409 119.52 86.4258 119.52C87.1928 119.52 87.8841 119.662 88.4996 119.946C89.1152 120.23 89.6194 120.628 90.0124 121.139C90.4054 121.651 90.6493 122.247 90.7439 122.929H89.0678C88.94 122.432 88.6559 121.992 88.2155 121.608C87.7799 121.22 87.1928 121.026 86.4542 121.026C85.8008 121.026 85.2278 121.196 84.7354 121.537C84.2477 121.873 83.8666 122.349 83.592 122.965C83.3221 123.575 83.1871 124.293 83.1871 125.117C83.1871 125.959 83.3197 126.693 83.5849 127.318C83.8547 127.943 84.2335 128.429 84.7212 128.774C85.2136 129.12 85.7913 129.293 86.4542 129.293C86.8898 129.293 87.2851 129.217 87.6403 129.066C87.9954 128.914 88.296 128.696 88.5422 128.412C88.7885 128.128 88.9636 127.787 89.0678 127.389H90.7439C90.6493 128.033 90.4149 128.613 90.0408 129.129C89.6715 129.641 89.1814 130.048 88.5707 130.351C87.9646 130.649 87.2591 130.798 86.4542 130.798ZM97.7681 130.798C96.717 130.798 95.8102 130.566 95.0479 130.102C94.2903 129.634 93.7056 128.98 93.2937 128.142C92.8865 127.299 92.6829 126.319 92.6829 125.202C92.6829 124.084 92.8865 123.1 93.2937 122.247C93.7056 121.39 94.2785 120.723 95.0124 120.244C95.7511 119.762 96.6128 119.52 97.5976 119.52C98.1658 119.52 98.7269 119.615 99.2809 119.804C99.8349 119.994 100.339 120.301 100.794 120.727C101.248 121.149 101.61 121.708 101.88 122.404C102.15 123.1 102.285 123.957 102.285 124.975V125.685H93.8761V124.236H100.581C100.581 123.62 100.457 123.071 100.211 122.588C99.9698 122.105 99.6242 121.724 99.1743 121.445C98.7293 121.165 98.2037 121.026 97.5976 121.026C96.93 121.026 96.3524 121.191 95.8647 121.523C95.3817 121.85 95.01 122.276 94.7496 122.801C94.4892 123.327 94.359 123.89 94.359 124.492V125.458C94.359 126.281 94.5011 126.98 94.7851 127.553C95.074 128.121 95.4741 128.554 95.9854 128.852C96.4968 129.146 97.091 129.293 97.7681 129.293C98.2084 129.293 98.6062 129.231 98.9613 129.108C99.3211 128.98 99.6313 128.791 99.8917 128.54C100.152 128.284 100.353 127.967 100.495 127.588L102.115 128.043C101.944 128.592 101.658 129.075 101.255 129.492C100.853 129.904 100.356 130.226 99.7638 130.458C99.172 130.685 98.5067 130.798 97.7681 130.798ZM1.21003 141.588V140.026H12.1191V141.588H7.54526V154.571H5.7839V141.588H1.21003ZM17.6021 154.798C16.5509 154.798 15.6442 154.566 14.8819 154.102C14.1243 153.634 13.5396 152.98 13.1276 152.142C12.7205 151.299 12.5169 150.319 12.5169 149.202C12.5169 148.084 12.7205 147.1 13.1276 146.247C13.5396 145.39 14.1125 144.723 14.8464 144.244C15.585 143.762 16.4468 143.52 17.4316 143.52C17.9998 143.52 18.5609 143.615 19.1149 143.804C19.6688 143.994 20.1731 144.301 20.6276 144.727C21.0822 145.149 21.4444 145.708 21.7143 146.404C21.9842 147.1 22.1191 147.957 22.1191 148.975V149.685H13.71V148.236H20.4146C20.4146 147.62 20.2915 147.071 20.0453 146.588C19.8038 146.105 19.4581 145.724 19.0083 145.445C18.5633 145.165 18.0377 145.026 17.4316 145.026C16.764 145.026 16.1864 145.191 15.6987 145.523C15.2157 145.85 14.844 146.276 14.5836 146.801C14.3232 147.327 14.193 147.89 14.193 148.492V149.458C14.193 150.281 14.335 150.98 14.6191 151.553C14.908 152.121 15.308 152.554 15.8194 152.852C16.3308 153.146 16.925 153.293 17.6021 153.293C18.0424 153.293 18.4401 153.231 18.7953 153.108C19.1551 152.98 19.4652 152.791 19.7257 152.54C19.9861 152.284 20.1873 151.967 20.3294 151.588L21.9487 152.043C21.7782 152.592 21.4918 153.075 21.0893 153.492C20.6868 153.904 20.1897 154.226 19.5978 154.458C19.006 154.685 18.3407 154.798 17.6021 154.798ZM29.1007 154.798C28.0779 154.798 27.1973 154.557 26.4586 154.074C25.72 153.591 25.1518 152.926 24.7541 152.078C24.3563 151.231 24.1575 150.262 24.1575 149.173C24.1575 148.066 24.3611 147.088 24.7683 146.24C25.1802 145.388 25.7531 144.723 26.487 144.244C27.2257 143.762 28.0874 143.52 29.0723 143.52C29.8393 143.52 30.5306 143.662 31.1461 143.946C31.7616 144.23 32.2659 144.628 32.6589 145.139C33.0519 145.651 33.2957 146.247 33.3904 146.929H31.7143C31.5865 146.432 31.3024 145.992 30.862 145.608C30.4264 145.22 29.8393 145.026 29.1007 145.026C28.4473 145.026 27.8743 145.196 27.3819 145.537C26.8942 145.873 26.5131 146.349 26.2384 146.965C25.9686 147.575 25.8336 148.293 25.8336 149.117C25.8336 149.959 25.9662 150.693 26.2313 151.318C26.5012 151.943 26.88 152.429 27.3677 152.774C27.8601 153.12 28.4378 153.293 29.1007 153.293C29.5363 153.293 29.9316 153.217 30.2867 153.066C30.6419 152.914 30.9425 152.696 31.1887 152.412C31.4349 152.128 31.6101 151.787 31.7143 151.389H33.3904C33.2957 152.033 33.0614 152.613 32.6873 153.129C32.318 153.641 31.8279 154.048 31.2171 154.351C30.6111 154.649 29.9056 154.798 29.1007 154.798ZM37.5169 148.009V154.571H35.8407V140.026H37.5169V145.367H37.6589C37.9146 144.803 38.2981 144.356 38.8095 144.024C39.3256 143.688 40.0121 143.52 40.8691 143.52C41.6125 143.52 42.2635 143.669 42.8223 143.968C43.381 144.261 43.8142 144.713 44.122 145.324C44.4345 145.93 44.5907 146.702 44.5907 147.639V154.571H42.9146V147.753C42.9146 146.887 42.6897 146.217 42.2399 145.743C41.7948 145.265 41.1769 145.026 40.3862 145.026C39.8369 145.026 39.3445 145.142 38.9089 145.374C38.478 145.606 38.1371 145.944 37.8862 146.389C37.64 146.834 37.5169 147.374 37.5169 148.009ZM49.3333 148.009V154.571H47.6571V143.662H49.2764V145.367H49.4185C49.6742 144.813 50.0624 144.368 50.5833 144.031C51.1041 143.691 51.7764 143.52 52.6003 143.52C53.3389 143.52 53.9852 143.672 54.5392 143.975C55.0932 144.273 55.5241 144.727 55.8318 145.338C56.1396 145.944 56.2935 146.711 56.2935 147.639V154.571H54.6174V147.753C54.6174 146.896 54.3948 146.228 53.9497 145.75C53.5047 145.267 52.8939 145.026 52.1173 145.026C51.5823 145.026 51.1041 145.142 50.6827 145.374C50.266 145.606 49.937 145.944 49.6955 146.389C49.454 146.834 49.3333 147.374 49.3333 148.009ZM63.7882 154.798C62.8033 154.798 61.9392 154.564 61.1958 154.095C60.4572 153.627 59.8795 152.971 59.4629 152.128C59.0509 151.285 58.845 150.3 58.845 149.173C58.845 148.037 59.0509 147.045 59.4629 146.198C59.8795 145.35 60.4572 144.692 61.1958 144.223C61.9392 143.754 62.8033 143.52 63.7882 143.52C64.773 143.52 65.6348 143.754 66.3734 144.223C67.1168 144.692 67.6944 145.35 68.1063 146.198C68.523 147.045 68.7313 148.037 68.7313 149.173C68.7313 150.3 68.523 151.285 68.1063 152.128C67.6944 152.971 67.1168 153.627 66.3734 154.095C65.6348 154.564 64.773 154.798 63.7882 154.798ZM63.7882 153.293C64.5363 153.293 65.1518 153.101 65.6348 152.718C66.1177 152.334 66.4752 151.83 66.7072 151.205C66.9392 150.58 67.0552 149.903 67.0552 149.173C67.0552 148.444 66.9392 147.765 66.7072 147.135C66.4752 146.505 66.1177 145.996 65.6348 145.608C65.1518 145.22 64.5363 145.026 63.7882 145.026C63.0401 145.026 62.4245 145.22 61.9416 145.608C61.4586 145.996 61.1011 146.505 60.8691 147.135C60.6371 147.765 60.5211 148.444 60.5211 149.173C60.5211 149.903 60.6371 150.58 60.8691 151.205C61.1011 151.83 61.4586 152.334 61.9416 152.718C62.4245 153.101 63.0401 153.293 63.7882 153.293ZM72.9661 140.026V154.571H71.2899V140.026H72.9661ZM80.4678 154.798C79.483 154.798 78.6189 154.564 77.8755 154.095C77.1369 153.627 76.5592 152.971 76.1426 152.128C75.7306 151.285 75.5247 150.3 75.5247 149.173C75.5247 148.037 75.7306 147.045 76.1426 146.198C76.5592 145.35 77.1369 144.692 77.8755 144.223C78.6189 143.754 79.483 143.52 80.4678 143.52C81.4527 143.52 82.3144 143.754 83.0531 144.223C83.7964 144.692 84.3741 145.35 84.786 146.198C85.2027 147.045 85.411 148.037 85.411 149.173C85.411 150.3 85.2027 151.285 84.786 152.128C84.3741 152.971 83.7964 153.627 83.0531 154.095C82.3144 154.564 81.4527 154.798 80.4678 154.798ZM80.4678 153.293C81.216 153.293 81.8315 153.101 82.3144 152.718C82.7974 152.334 83.1549 151.83 83.3869 151.205C83.6189 150.58 83.7349 149.903 83.7349 149.173C83.7349 148.444 83.6189 147.765 83.3869 147.135C83.1549 146.505 82.7974 145.996 82.3144 145.608C81.8315 145.22 81.216 145.026 80.4678 145.026C79.7197 145.026 79.1042 145.22 78.6213 145.608C78.1383 145.996 77.7808 146.505 77.5488 147.135C77.3168 147.765 77.2008 148.444 77.2008 149.173C77.2008 149.903 77.3168 150.58 77.5488 151.205C77.7808 151.83 78.1383 152.334 78.6213 152.718C79.1042 153.101 79.7197 153.293 80.4678 153.293ZM92.373 158.889C91.5634 158.889 90.8673 158.785 90.285 158.577C89.7026 158.373 89.2173 158.103 88.829 157.767C88.4455 157.436 88.1401 157.081 87.9128 156.702L89.248 155.764C89.3995 155.963 89.5913 156.191 89.8233 156.446C90.0553 156.707 90.3726 156.932 90.775 157.121C91.1822 157.315 91.7149 157.412 92.373 157.412C93.2537 157.412 93.9805 157.199 94.5534 156.773C95.1263 156.347 95.4128 155.679 95.4128 154.77V152.554H95.2708C95.1477 152.753 94.9725 152.999 94.7452 153.293C94.5227 153.582 94.2007 153.84 93.7793 154.067C93.3626 154.289 92.7992 154.401 92.0889 154.401C91.2083 154.401 90.4175 154.192 89.7168 153.776C89.0208 153.359 88.4691 152.753 88.062 151.958C87.6595 151.162 87.4583 150.196 87.4583 149.06C87.4583 147.942 87.6548 146.969 88.0477 146.141C88.4407 145.307 88.9876 144.664 89.6884 144.209C90.3891 143.75 91.1988 143.52 92.1173 143.52C92.8276 143.52 93.391 143.638 93.8077 143.875C94.2291 144.107 94.5511 144.372 94.7736 144.671C95.0009 144.964 95.1761 145.206 95.2992 145.395H95.4696V143.662H97.0889V154.884C97.0889 155.821 96.8759 156.584 96.4497 157.171C96.0283 157.762 95.4602 158.196 94.7452 158.47C94.035 158.75 93.2442 158.889 92.373 158.889ZM92.3162 152.895C92.9886 152.895 93.5567 152.741 94.0208 152.433C94.4848 152.126 94.8375 151.683 95.079 151.105C95.3205 150.528 95.4412 149.836 95.4412 149.031C95.4412 148.245 95.3228 147.552 95.0861 146.95C94.8494 146.349 94.499 145.878 94.035 145.537C93.5709 145.196 92.998 145.026 92.3162 145.026C91.606 145.026 91.0141 145.206 90.5406 145.566C90.0719 145.925 89.7191 146.408 89.4824 147.014C89.2504 147.62 89.1344 148.293 89.1344 149.031C89.1344 149.789 89.2528 150.459 89.4895 151.041C89.731 151.619 90.0861 152.074 90.5549 152.405C91.0283 152.732 91.6155 152.895 92.3162 152.895ZM101.237 158.662C100.953 158.662 100.699 158.638 100.477 158.591C100.254 158.548 100.1 158.506 100.015 158.463L100.441 156.986C100.848 157.09 101.208 157.128 101.521 157.1C101.833 157.071 102.11 156.932 102.352 156.681C102.598 156.434 102.823 156.034 103.026 155.48L103.339 154.628L99.3048 143.662H101.123L104.134 152.355H104.248L107.259 143.662H109.078L104.447 156.162C104.239 156.726 103.981 157.192 103.673 157.561C103.365 157.935 103.008 158.212 102.6 158.392C102.198 158.572 101.743 158.662 101.237 158.662Z" fill="black"/>
</svg>
