<svg width="250" height="162" viewBox="0 0 250 162" fill="none" xmlns="http://www.w3.org/2000/svg">
<ellipse cx="168.651" cy="29.6341" rx="29.7619" ry="29.6341" fill="#EB1287" fill-opacity="0.8"/>
<ellipse cx="210.317" cy="45.439" rx="24.8016" ry="24.6951" fill="#A2C94F" fill-opacity="0.8"/>
<ellipse cx="205.357" cy="79.0244" rx="19.8413" ry="19.7561" fill="#00B6DD" fill-opacity="0.8"/>
<ellipse cx="235.119" cy="86.9268" rx="14.881" ry="14.8171" fill="#DD0000" fill-opacity="0.8"/>
<ellipse opacity="0.8" cx="221.726" cy="109.152" rx="7.44048" ry="7.40854" fill="#FF9900" fill-opacity="0.8"/>
<path d="M22.1849 87.4711C21.9861 86.7798 21.7067 86.169 21.3469 85.6387C20.987 85.0989 20.5467 84.6444 20.0258 84.275C19.5145 83.8963 18.9274 83.6074 18.2645 83.4086C17.6111 83.2097 16.8866 83.1103 16.0912 83.1103C14.6044 83.1103 13.2976 83.4796 12.1707 84.2182C11.0533 84.9569 10.1821 86.0317 9.55709 87.4427C8.93209 88.8442 8.61959 90.5582 8.61959 92.5847C8.61959 94.6112 8.92736 96.3347 9.54289 97.7552C10.1584 99.1756 11.0296 100.26 12.1565 101.008C13.2834 101.747 14.6139 102.116 16.148 102.116C17.54 102.116 18.7285 101.87 19.7133 101.377C20.7077 100.875 21.4652 100.17 21.9861 99.2608C22.5164 98.3518 22.7815 97.2769 22.7815 96.0364L24.0315 96.2211H16.5315V91.5904H28.7048V95.2552C28.7048 97.812 28.165 100.009 27.0855 101.846C26.006 103.674 24.5192 105.085 22.6253 106.079C20.7313 107.064 18.5628 107.556 16.1196 107.556C13.3923 107.556 10.9965 106.955 8.93209 105.752C6.8677 104.54 5.25785 102.821 4.10255 100.596C2.95671 98.3612 2.3838 95.7097 2.3838 92.6415C2.3838 90.2836 2.72471 88.1813 3.40653 86.3347C4.09781 84.4786 5.06372 82.9067 6.30425 81.6188C7.54478 80.3309 8.98891 79.3508 10.6366 78.6785C12.2844 78.0061 14.0694 77.6699 15.9918 77.6699C17.6395 77.6699 19.1736 77.9114 20.594 78.3944C22.0145 78.8678 23.274 79.5402 24.3724 80.4114C25.4804 81.2826 26.3847 82.3196 27.0855 83.5222C27.7863 84.7154 28.2361 86.0317 28.4349 87.4711H22.1849ZM42.5827 107.159V78.0677H62.1849V83.1387H48.7332V90.0705H61.1764V95.1415H48.7332V102.088H62.2418V107.159H42.5827ZM76.3327 78.0677H83.9179L91.9293 97.6131H92.2702L100.282 78.0677H107.867V107.159H101.901V88.2239H101.659L94.131 107.017H90.0685L82.54 88.1529H82.2986V107.159H76.3327V78.0677ZM122.192 107.159V78.0677H141.794V83.1387H128.343V90.0705H140.786V95.1415H128.343V102.088H141.851V107.159H122.192ZM180.274 78.0677V107.159H174.962L162.306 88.8489H162.093V107.159H155.942V78.0677H161.34L173.897 96.3631H174.152V78.0677H180.274ZM12.7234 117.474V116.068H22.5416V117.474H18.4251V129.159H16.8399V117.474H12.7234ZM30.0506 129.159V116.068H37.9512V117.474H31.6358V121.897H37.5421V123.303H31.6358V127.752H38.0535V129.159H30.0506ZM56.405 120.159H54.8198C54.726 119.703 54.562 119.302 54.3276 118.957C54.0975 118.612 53.8162 118.322 53.4839 118.088C53.1557 117.849 52.7914 117.67 52.3908 117.551C51.9902 117.431 51.5726 117.372 51.138 117.372C50.3454 117.372 49.6273 117.572 48.9839 117.972C48.3446 118.373 47.8354 118.963 47.4562 119.743C47.0812 120.523 46.8937 121.48 46.8937 122.613C46.8937 123.747 47.0812 124.703 47.4562 125.483C47.8354 126.263 48.3446 126.853 48.9839 127.254C49.6273 127.654 50.3454 127.855 51.138 127.855C51.5726 127.855 51.9902 127.795 52.3908 127.676C52.7914 127.556 53.1557 127.379 53.4839 127.145C53.8162 126.906 54.0975 126.615 54.3276 126.269C54.562 125.92 54.726 125.519 54.8198 125.068H56.405C56.2857 125.737 56.0684 126.335 55.753 126.864C55.4377 127.392 55.0456 127.842 54.5769 128.213C54.1081 128.579 53.5819 128.858 52.9981 129.05C52.4185 129.242 51.7985 129.338 51.138 129.338C50.0215 129.338 49.0286 129.065 48.1593 128.519C47.29 127.974 46.606 127.198 46.1074 126.193C45.6089 125.187 45.3596 123.994 45.3596 122.613C45.3596 121.232 45.6089 120.039 46.1074 119.034C46.606 118.028 47.29 117.252 48.1593 116.707C49.0286 116.161 50.0215 115.889 51.138 115.889C51.7985 115.889 52.4185 115.985 52.9981 116.176C53.5819 116.368 54.1081 116.649 54.5769 117.02C55.0456 117.387 55.4377 117.834 55.753 118.362C56.0684 118.887 56.2857 119.485 56.405 120.159ZM64.0291 129.159V116.068H65.6144V121.897H72.5945V116.068H74.1797V129.159H72.5945V123.303H65.6144V129.159H64.0291ZM92.7965 116.068V129.159H91.2624L84.1289 118.88H84.0011V129.159H82.4158V116.068H83.9499L91.109 126.372H91.2369V116.068H92.7965ZM112.077 122.613C112.077 123.994 111.827 125.187 111.329 126.193C110.83 127.198 110.146 127.974 109.277 128.519C108.408 129.065 107.415 129.338 106.298 129.338C105.182 129.338 104.189 129.065 103.319 128.519C102.45 127.974 101.766 127.198 101.268 126.193C100.769 125.187 100.52 123.994 100.52 122.613C100.52 121.232 100.769 120.039 101.268 119.034C101.766 118.028 102.45 117.252 103.319 116.707C104.189 116.161 105.182 115.889 106.298 115.889C107.415 115.889 108.408 116.161 109.277 116.707C110.146 117.252 110.83 118.028 111.329 119.034C111.827 120.039 112.077 121.232 112.077 122.613ZM110.542 122.613C110.542 121.48 110.353 120.523 109.974 119.743C109.599 118.963 109.089 118.373 108.446 117.972C107.807 117.572 107.091 117.372 106.298 117.372C105.506 117.372 104.787 117.572 104.144 117.972C103.505 118.373 102.996 118.963 102.616 119.743C102.241 120.523 102.054 121.48 102.054 122.613C102.054 123.747 102.241 124.703 102.616 125.483C102.996 126.263 103.505 126.853 104.144 127.254C104.787 127.654 105.506 127.855 106.298 127.855C107.091 127.855 107.807 127.654 108.446 127.254C109.089 126.853 109.599 126.263 109.974 125.483C110.353 124.703 110.542 123.747 110.542 122.613ZM119.805 129.159V116.068H121.39V127.752H127.475V129.159H119.805ZM146.037 122.613C146.037 123.994 145.788 125.187 145.29 126.193C144.791 127.198 144.107 127.974 143.238 128.519C142.368 129.065 141.376 129.338 140.259 129.338C139.143 129.338 138.15 129.065 137.28 128.519C136.411 127.974 135.727 127.198 135.229 126.193C134.73 125.187 134.481 123.994 134.481 122.613C134.481 121.232 134.73 120.039 135.229 119.034C135.727 118.028 136.411 117.252 137.28 116.707C138.15 116.161 139.143 115.889 140.259 115.889C141.376 115.889 142.368 116.161 143.238 116.707C144.107 117.252 144.791 118.028 145.29 119.034C145.788 120.039 146.037 121.232 146.037 122.613ZM144.503 122.613C144.503 121.48 144.314 120.523 143.934 119.743C143.559 118.963 143.05 118.373 142.407 117.972C141.768 117.572 141.052 117.372 140.259 117.372C139.466 117.372 138.748 117.572 138.105 117.972C137.466 118.373 136.957 118.963 136.577 119.743C136.202 120.523 136.015 121.48 136.015 122.613C136.015 123.747 136.202 124.703 136.577 125.483C136.957 126.263 137.466 126.853 138.105 127.254C138.748 127.654 139.466 127.855 140.259 127.855C141.052 127.855 141.768 127.654 142.407 127.254C143.05 126.853 143.559 126.263 143.934 125.483C144.314 124.703 144.503 123.747 144.503 122.613ZM162.714 120.159C162.574 119.728 162.388 119.343 162.158 119.002C161.932 118.656 161.662 118.362 161.346 118.12C161.035 117.877 160.682 117.691 160.285 117.563C159.889 117.436 159.454 117.372 158.981 117.372C158.206 117.372 157.501 117.572 156.866 117.972C156.231 118.373 155.726 118.963 155.351 119.743C154.976 120.523 154.788 121.48 154.788 122.613C154.788 123.747 154.978 124.703 155.357 125.483C155.736 126.263 156.25 126.853 156.898 127.254C157.545 127.654 158.274 127.855 159.084 127.855C159.834 127.855 160.494 127.695 161.065 127.375C161.64 127.051 162.088 126.595 162.408 126.007C162.731 125.415 162.893 124.718 162.893 123.917L163.379 124.019H159.442V122.613H164.427V124.019C164.427 125.097 164.197 126.035 163.737 126.832C163.281 127.629 162.65 128.247 161.845 128.686C161.044 129.12 160.123 129.338 159.084 129.338C157.925 129.338 156.906 129.065 156.028 128.519C155.155 127.974 154.473 127.198 153.983 126.193C153.497 125.187 153.254 123.994 153.254 122.613C153.254 121.578 153.393 120.646 153.67 119.82C153.951 118.989 154.347 118.281 154.859 117.698C155.37 117.114 155.975 116.666 156.674 116.355C157.373 116.044 158.142 115.889 158.981 115.889C159.672 115.889 160.315 115.993 160.912 116.202C161.513 116.406 162.047 116.698 162.516 117.078C162.989 117.453 163.383 117.902 163.699 118.426C164.014 118.946 164.231 119.524 164.351 120.159H162.714ZM171.08 116.068H172.895L176.526 122.178H176.679L180.31 116.068H182.125L177.395 123.764V129.159H175.81V123.764L171.08 116.068Z" fill="white"/>
</svg>
