<svg width="50" height="50" viewBox="0 0 50 50" fill="none" xmlns="http://www.w3.org/2000/svg">
<circle cx="25" cy="25" r="25" fill="#00B6DD"/>
<path d="M25.4167 13.5834C26.6765 13.5834 27.8847 14.0838 28.7755 14.9746C29.6663 15.8654 30.1667 17.0736 30.1667 18.3334C30.1667 19.5932 29.6663 20.8013 28.7755 21.6921C27.8847 22.5829 26.6765 23.0834 25.4167 23.0834C24.157 23.0834 22.9488 22.5829 22.058 21.6921C21.1672 20.8013 20.6667 19.5932 20.6667 18.3334C20.6667 17.0736 21.1672 15.8654 22.058 14.9746C22.9488 14.0838 24.157 13.5834 25.4167 13.5834ZM25.4167 29.2084C28.6877 29.2084 31.5734 29.8739 33.5858 30.8801C35.6875 31.931 36.4167 33.1057 36.4167 33.9584V35.5834H14.4167V33.9584C14.4167 33.1057 15.146 31.931 17.2477 30.8801C19.2601 29.8739 22.1458 29.2084 25.4167 29.2084Z" stroke="white" stroke-width="3"/>
</svg>
