<svg width="50" height="50" viewBox="0 0 50 50" fill="none" xmlns="http://www.w3.org/2000/svg">
<circle cx="25" cy="25" r="24" stroke="white" stroke-width="2"/>
<path d="M25.4167 13.0834C26.8091 13.0834 28.1445 13.6365 29.1291 14.6211C30.1136 15.6056 30.6667 16.941 30.6667 18.3334C30.6667 19.7258 30.1136 21.0611 29.1291 22.0457C28.1445 23.0303 26.8091 23.5834 25.4167 23.5834C24.0244 23.5834 22.689 23.0303 21.7044 22.0457C20.7199 21.0611 20.1667 19.7258 20.1667 18.3334C20.1667 16.941 20.7199 15.6056 21.7044 14.6211C22.689 13.6365 24.0244 13.0834 25.4167 13.0834ZM25.4167 28.7084C28.7484 28.7084 31.7139 29.3851 33.8094 30.4329C35.9644 31.5104 36.9167 32.8144 36.9167 33.9584V36.0834H13.9167V33.9584C13.9167 32.8144 14.8691 31.5104 17.0241 30.4329C19.1196 29.3851 22.0851 28.7084 25.4167 28.7084Z" stroke="white" stroke-width="2"/>
</svg>
