<svg width="50" height="50" viewBox="0 0 50 50" fill="none" xmlns="http://www.w3.org/2000/svg">
<circle cx="25" cy="25" r="25" fill="#FF9900"/>
<path d="M25.1911 29.6586C25.8304 29.6586 26.4634 29.5396 27.0541 29.3083C27.6447 29.0769 28.1814 28.7379 28.6335 28.3104C29.0855 27.883 29.4441 27.3755 29.6888 26.8171C29.9334 26.2586 30.0594 25.66 30.0594 25.0555C30.0594 24.451 29.9334 23.8525 29.6888 23.294C29.4441 22.7355 29.0855 22.2281 28.6335 21.8006C28.1814 21.3732 27.6447 21.0341 27.0541 20.8028C26.4634 20.5715 25.8304 20.4524 25.1911 20.4524C23.8999 20.4524 22.6616 20.9374 21.7486 21.8006C20.8357 22.6639 20.3228 23.8347 20.3228 25.0555C20.3228 26.2763 20.8357 27.4472 21.7486 28.3104C22.6616 29.1737 23.8999 29.6586 25.1911 29.6586Z" stroke="white" stroke-width="3" stroke-linecap="round" stroke-linejoin="round"/>
<path d="M38 29.2344C37.4257 30.793 36.5404 32.233 35.3922 33.4762L32.3184 32.8167C31.1527 33.8055 29.7677 34.5349 28.2648 34.9513L27.4342 37.7961C26.6556 37.9284 25.8663 37.9966 25.0753 38C24.0857 37.9997 23.0992 37.8941 22.1346 37.6853L21.2533 34.7488C19.9394 34.2918 18.7318 33.598 17.6975 32.7059L14.6585 33.4448C13.4518 32.114 12.5469 30.5631 12 28.8882L14.2431 26.5319C14.0379 25.3269 14.0718 24.0963 14.343 22.903L12.1302 20.7205C12.7717 19.0077 13.7914 17.4437 15.1216 16.1324L18.2619 16.8713C19.1264 16.2154 20.0898 15.6855 21.1201 15.2991L21.9508 12.3927C22.9765 12.1399 24.0313 12.008 25.0912 12C25.9378 12 26.7844 12.0739 27.6165 12.2189L28.4139 15.1103C29.6151 15.4783 30.741 16.0407 31.7366 16.7755L34.8944 16.0052C36.1693 17.2185 37.1746 18.6607 37.8509 20.247L35.7091 22.446C36.115 23.9529 36.1487 25.5279 35.8075 27.0491L38 29.2344Z" stroke="white" stroke-width="3" stroke-linecap="round" stroke-linejoin="round"/>
</svg>
