<svg width="19" height="20" viewBox="0 0 19 20" fill="none" xmlns="http://www.w3.org/2000/svg">
<path d="M4.03682 2.79991C4.03682 2.32254 4.22071 1.86473 4.54804 1.52718C4.87536 1.18963 5.31931 1 5.78222 1H11.1685C11.3979 0.999932 11.625 1.04647 11.8368 1.13696C12.0487 1.22745 12.2412 1.36012 12.4034 1.52737L17.4886 6.77231C17.8159 7.10978 17.9999 7.56752 18 8.04485V17.1992C18 17.6766 17.8161 18.1344 17.4888 18.4719C17.1615 18.8095 16.7175 18.9991 16.2546 18.9991H14.4656C14.8304 18.6301 15.1061 18.1675 15.2554 17.6492H16.2546C16.3703 17.6492 16.4813 17.6018 16.5631 17.5174C16.645 17.433 16.691 17.3185 16.691 17.1992V8.19964H12.7638C12.3009 8.19964 11.857 8.01001 11.5296 7.67246C11.2023 7.33491 11.0184 6.8771 11.0184 6.39973V2.34993H5.78222C5.66649 2.34993 5.5555 2.39734 5.47367 2.48173C5.39184 2.56612 5.34587 2.68057 5.34587 2.79991V12.3637C5.13991 12.5125 4.95432 12.6841 4.78909 12.8785C4.63955 12.5091 4.37484 12.2016 4.03682 12.0046V2.79991ZM12.3275 3.35788V6.39973C12.3275 6.51907 12.3734 6.63353 12.4553 6.71791C12.5371 6.8023 12.6481 6.84971 12.7638 6.84971H15.7135L12.3275 3.35788ZM4.03682 13.5445C4.03682 13.0387 3.65894 12.7669 3.38928 12.6886C3.11961 12.6103 2.68763 12.6382 2.42058 13.0225C2.14307 13.4212 1.75733 13.8676 1.30353 14.1447C1.16 14.2388 1.0576 14.3867 1.018 14.5573C0.978398 14.7278 1.00471 14.9075 1.09136 15.0584C1.17801 15.2093 1.3182 15.3195 1.48225 15.3656C1.64629 15.4118 1.82132 15.3903 1.97027 15.3057C2.25215 15.1347 2.50524 14.9277 2.72777 14.7099V18.325C2.72777 18.504 2.79673 18.6757 2.91948 18.8023C3.04223 18.9289 3.20871 19 3.3823 19C3.55589 19 3.72237 18.9289 3.84512 18.8023C3.96786 18.6757 4.03682 18.504 4.03682 18.325V13.5445ZM4.90952 14.9493C4.90952 14.3526 5.13938 13.7803 5.54854 13.3584C5.9577 12.9365 6.51263 12.6994 7.09127 12.6994C7.6699 12.6994 8.22484 12.9365 8.63399 13.3584C9.04315 13.7803 9.27301 14.3526 9.27301 14.9493V16.7492C9.27301 17.3459 9.04315 17.9182 8.63399 18.3401C8.22484 18.7621 7.6699 18.9991 7.09127 18.9991C6.51263 18.9991 5.9577 18.7621 5.54854 18.3401C5.13938 17.9182 4.90952 17.3459 4.90952 16.7492V14.9493ZM7.09127 14.0493C6.85981 14.0493 6.63784 14.1442 6.47418 14.3129C6.31051 14.4817 6.21857 14.7106 6.21857 14.9493V16.7492C6.21857 16.9879 6.31051 17.2168 6.47418 17.3856C6.63784 17.5544 6.85981 17.6492 7.09127 17.6492C7.32272 17.6492 7.54469 17.5544 7.70836 17.3856C7.87202 17.2168 7.96397 16.9879 7.96397 16.7492V14.9493C7.96397 14.7106 7.87202 14.4817 7.70836 14.3129C7.54469 14.1442 7.32272 14.0493 7.09127 14.0493ZM12.3275 12.6994C11.7488 12.6994 11.1939 12.9365 10.7847 13.3584C10.3756 13.7803 10.1457 14.3526 10.1457 14.9493V16.7492C10.1457 17.3459 10.3756 17.9182 10.7847 18.3401C11.1939 18.7621 11.7488 18.9991 12.3275 18.9991C12.9061 18.9991 13.461 18.7621 13.8702 18.3401C14.2793 17.9182 14.5092 17.3459 14.5092 16.7492V14.9493C14.5092 14.3526 14.2793 13.7803 13.8702 13.3584C13.461 12.9365 12.9061 12.6994 12.3275 12.6994ZM11.4548 14.9493C11.4548 14.7106 11.5467 14.4817 11.7104 14.3129C11.874 14.1442 12.096 14.0493 12.3275 14.0493C12.5589 14.0493 12.7809 14.1442 12.9445 14.3129C13.1082 14.4817 13.2002 14.7106 13.2002 14.9493V16.7492C13.2002 16.9879 13.1082 17.2168 12.9445 17.3856C12.7809 17.5544 12.5589 17.6492 12.3275 17.6492C12.096 17.6492 11.874 17.5544 11.7104 17.3856C11.5467 17.2168 11.4548 16.9879 11.4548 16.7492V14.9493Z" fill="white" stroke="white" stroke-width="0.3"/>
</svg>
