<svg width="50" height="50" viewBox="0 0 50 50" fill="none" xmlns="http://www.w3.org/2000/svg">
<circle cx="25" cy="25" r="24" stroke="black" stroke-width="2"/>
<g clip-path="url(#clip0_420_216)">
<path d="M16.4118 16.2868H16.2868V16.4118V22.2941V22.4191H16.4118H17.8824H18.0074V22.2941V19.2279L27.6764 28.8826L27.7648 28.9708L27.8531 28.8825L28.8825 27.8531L28.9708 27.7648L28.8826 27.6764L19.2279 18.0074H22.2941H22.4191V17.8824V16.4118V16.2868H22.2941H16.4118ZM37 37.125H37.125V37V19.3529V19.2279H37H23.7647H23.4629L23.6763 19.4413L25.1469 20.9119L25.1835 20.9485H25.2353H35.4044V35.4044H20.9485V25.2353V25.1835L20.9119 25.1469L19.4413 23.6763L19.2279 23.4629V23.7647V37V37.125H19.3529H37ZM11.875 29.6471V29.7721H12H16.4118H16.5368V29.6471V28.1765V28.0515H16.4118H13.5956V13.5956H28.0515V16.4118V16.5368H28.1765H29.6471H29.7721V16.4118V12V11.875H29.6471H12H11.875V12V29.6471Z" fill="black" stroke="black" stroke-width="0.25"/>
</g>
<defs>
<clipPath id="clip0_420_216">
<rect width="25" height="25" fill="white" transform="translate(12 12)"/>
</clipPath>
</defs>
</svg>
