<svg width="52" height="46" viewBox="0 0 52 46" fill="none" xmlns="http://www.w3.org/2000/svg">
<path d="M31.1708 5.74863C32.1343 3.56049 34.1209 2.18666 36.2344 1.64635C37.4433 1.33774 38.2195 1.28392 39.446 1.06472C41.1943 0.753229 44.3058 1.63772 45.4479 2.19245C47.6992 3.28748 48.8141 5.26507 49.726 7.44264C50.5158 9.3289 51.1288 11.4007 50.9767 13.4879C50.977 14.3974 50.7859 15.2463 50.6026 16.1423C49.4039 22.0001 44.2005 24.6699 41.4133 24.9545C38.5203 25.2487 35.7941 24.7651 33.3262 23.0548C32.6586 22.5914 30.744 20.9407 30.1134 19.1217C29.3981 17.0576 28.593 14.8367 29.2333 12.5429C29.4955 11.6045 29.5535 10.5412 30.3256 9.74902" stroke="white" stroke-width="1.75" stroke-linecap="round" stroke-linejoin="round"/>
<path d="M2.4209 30.4962C3.05153 28.8856 4.35185 27.8738 5.73524 27.4756C6.52652 27.2485 7.03457 27.2091 7.83737 27.0479C8.98172 26.8178 11.0183 27.4697 11.7659 27.8778C13.2394 28.684 13.9692 30.1402 14.566 31.7439C15.0831 33.1333 15.4843 34.6583 15.3848 36.1951C15.3849 36.8647 15.2598 37.4901 15.1399 38.1498C14.3553 42.4634 10.9494 44.4299 9.12509 44.6393C7.23149 44.8556 5.44706 44.4997 3.83174 43.2401C3.3947 42.899 2.14154 41.6837 1.7288 40.3445C1.26053 38.8244 0.733575 37.1892 1.15279 35.5C1.32433 34.8087 1.36222 34.0261 1.86766 33.443" stroke="white" stroke-width="1.75" stroke-linecap="round" stroke-linejoin="round"/>
</svg>
