<svg width="349" height="206" viewBox="0 0 349 206" fill="none" xmlns="http://www.w3.org/2000/svg">
<path d="M25.9024 129.829C9.8907 111.129 7.13868 95.898 17.6466 84.1361C28.1544 72.3742 43.9133 70.4815 64.9232 78.457C53.613 56.4836 54.5328 42.7419 67.6829 37.2327C80.8326 31.7237 101.269 30.36 128.992 33.1416C148.87 10.9149 170.202 0.586117 192.989 2.1552C227.168 4.50862 251.158 10.0964 261.339 49.7763C265 57.6092 311.116 45.4973 328.043 69.4677C344.969 93.4391 341.603 124.917 328.043 127.373C314.481 129.829 360.921 125.293 342.701 150.344C336.323 159.114 308.076 181.68 288.535 186.713C252.249 196.058 216.431 182.83 198.127 175.543C190.945 167.467 161.002 206.176 121.007 204.027C94.3426 202.595 79.2376 190.408 75.6925 167.467C64.216 176.842 49.4006 179.534 31.2457 175.543C4.01334 169.557 -6.74379 148.652 9.96534 136.357" stroke="white" stroke-width="2.5" stroke-linecap="round" stroke-linejoin="round"/>
</svg>
